<?xml version="1.0" standalone="no"?>
<!DOCTYPE svg PUBLIC "-//W3C//DTD SVG 20010904//EN"
 "http://www.w3.org/TR/2001/REC-SVG-20010904/DTD/svg10.dtd">
<svg version="1.0" xmlns="http://www.w3.org/2000/svg"
 width="35.000000pt" height="63.000000pt" viewBox="0 0 35.000000 63.000000"
 preserveAspectRatio="xMidYMid meet">
<metadata>
Created by potrace 1.15, written by Peter Selinger 2001-2017
</metadata>
<g transform="translate(0.000000,63.000000) scale(0.100000,-0.100000)"
fill="#000000" stroke="none">
<path d="M150 595 l0 -35 -55 0 c-48 0 -55 -2 -55 -20 0 -13 -7 -20 -20 -20
-19 0 -20 -7 -20 -195 l0 -195 49 0 c66 0 105 -15 97 -37 -7 -18 11 -83 24
-83 17 0 33 33 35 68 l1 37 59 7 c33 5 66 10 73 13 9 3 12 52 12 195 0 183 -1
190 -20 190 -13 0 -20 7 -20 20 0 18 -7 20 -55 20 l-55 0 0 35 c0 31 -3 35
-25 35 -22 0 -25 -4 -25 -35z m130 -275 c0 -121 6 -111 -72 -123 -25 -4 -27
-2 -22 19 3 13 7 46 7 74 2 47 10 65 19 39 3 -9 10 -9 26 0 28 15 28 23 0 40
-16 10 -23 10 -26 2 -7 -22 -23 -10 -20 17 2 21 -1 27 -17 27 -16 0 -19 -6
-17 -27 1 -16 -2 -28 -8 -28 -6 0 -8 5 -5 10 3 6 -1 10 -9 10 -9 0 -16 -4 -16
-10 0 -5 -7 -10 -15 -10 -21 0 -19 -17 4 -30 25 -13 44 -13 36 0 -3 6 -2 10 3
10 5 0 9 -12 8 -27 0 -16 3 -49 7 -74 l8 -46 -28 4 c-79 12 -73 2 -73 123 l0
110 105 0 105 0 0 -110z"/>
</g>
</svg>
